<svg width="18" height="22" viewBox="0 0 18 22" fill="none" xmlns="http://www.w3.org/2000/svg">
<path d="M16.071 9.625H15.107V6.53101C15.107 2.93001 12.367 0 9 0C5.633 0 2.89301 2.93001 2.89301 6.53101V9.625H1.92899C0.863986 9.625 0 10.549 0 11.688V19.938C0 21.076 0.863986 22 1.92899 22H16.071C17.136 22 18 21.076 18 19.938V11.688C18 10.549 17.136 9.625 16.071 9.625ZM11.893 9.625H6.10699V6.53101C6.10699 4.82501 7.405 3.43799 9 3.43799C10.595 3.43799 11.893 4.82501 11.893 6.53101V9.625Z" fill="#C4C4C4"/>
</svg>
