<svg width="320" height="125" viewBox="0 0 320 125" fill="none" xmlns="http://www.w3.org/2000/svg">
<path d="M93.7158 38.5081C55.5714 32.0622 34.6881 30.4268 -2.37744 28.2258L-2.37744 0L357.861 -8.85741e-07L357.861 110.484C324.102 106.739 305.386 99.4382 271.984 86.8952C200.208 58.4539 161.116 47.5983 93.7158 38.5081Z" fill="url(#paint0_linear)"/>
<path d="M161.127 91.8695C96.6572 65.1123 61.0613 52.9393 -1.48877 36.0632L-1.48877 0.806458L357.861 0.806456L357.861 123.298C273.208 129.94 232.78 116.658 161.127 91.8695Z" fill="url(#paint1_linear)"/>
<path d="M157.234 25.1042C93.6175 60.9307 58.8184 75.8249 -2.37744 97.1774L-2.37744 0L357.565 -8.85013e-07L357.565 35.2268C331.252 39.8679 318.702 35.1216 296.782 25.1042C241.749 10.532 211.22 11.2184 157.234 25.1042Z" fill="url(#paint2_linear)"/>
<path d="M170.472 94.5864C96.7015 101.869 60.073 95.6506 -2.37744 78.2856L-2.37744 0.806458L357.565 0.806457L357.565 90.1591C313.712 76.4942 289.591 74.718 247.327 81.103C217.733 89.8936 200.962 93.3272 170.472 94.5864Z" fill="url(#paint3_linear)"/>
<defs>
<linearGradient id="paint0_linear" x1="169.672" y1="70.9677" x2="169.672" y2="2.2369e-06" gradientUnits="userSpaceOnUse">
<stop stop-color="#BD385B"/>
<stop offset="0.456762" stop-color="#9A2762"/>
<stop offset="0.711133" stop-color="#8A1F66"/>
<stop offset="1" stop-color="#72146B"/>
</linearGradient>
<linearGradient id="paint1_linear" x1="178.186" y1="65.0576" x2="178.186" y2="0.806457" gradientUnits="userSpaceOnUse">
<stop stop-color="#BD385B" stop-opacity="0.51"/>
<stop offset="0.456762" stop-color="#9A2762" stop-opacity="0.51"/>
<stop offset="0.749306" stop-color="#8A1F66" stop-opacity="0.25"/>
<stop offset="1" stop-color="#72146B"/>
</linearGradient>
<linearGradient id="paint2_linear" x1="177.594" y1="50.2745" x2="177.594" y2="-4.42507e-07" gradientUnits="userSpaceOnUse">
<stop stop-color="#BD385B" stop-opacity="0.51"/>
<stop offset="0.456762" stop-color="#9A2762" stop-opacity="0.51"/>
<stop offset="0.749306" stop-color="#8A1F66" stop-opacity="0.25"/>
<stop offset="1" stop-color="#72146B"/>
</linearGradient>
<linearGradient id="paint3_linear" x1="177.594" y1="50.8723" x2="177.594" y2="0.806457" gradientUnits="userSpaceOnUse">
<stop stop-color="#BD385B" stop-opacity="0.51"/>
<stop offset="0.456762" stop-color="#9A2762" stop-opacity="0.51"/>
<stop offset="0.749306" stop-color="#8A1F66" stop-opacity="0.25"/>
<stop offset="1" stop-color="#72146B"/>
</linearGradient>
</defs>
</svg>
