<svg width="18" height="22" viewBox="0 0 18 22" fill="none" xmlns="http://www.w3.org/2000/svg">
<path d="M9 11C11.841 11 14.143 8.538 14.143 5.5C14.143 2.462 11.841 0 9 0C6.159 0 3.85699 2.462 3.85699 5.5C3.85699 8.538 6.159 11 9 11ZM12.6 12.375H11.929C11.037 12.813 10.045 13.062 9 13.062C7.955 13.062 6.96701 12.813 6.07101 12.375H5.39999C2.41899 12.375 0 14.962 0 18.15V19.938C0 21.076 0.863986 22 1.92899 22H16.071C17.136 22 18 21.076 18 19.938V18.15C18 14.962 15.581 12.375 12.6 12.375Z" fill="#C4C4C4"/>
</svg>
