<svg width="278" height="232" viewBox="0 0 278 232" fill="none" xmlns="http://www.w3.org/2000/svg">
<rect width="277.322" height="231" rx="10" fill="url(#paint0_linear)"/>
<g filter="url(#filter0_d)">
<path fill-rule="evenodd" clip-rule="evenodd" d="M52.0911 141.486L92.4893 126.867L132.888 112.248L62.7009 150.987C62.256 151.232 61.7023 151.153 61.3441 150.793L52.0911 141.486Z" fill="url(#paint1_linear)"/>
<path d="M132.888 112.248L40.7404 121.281M132.888 112.248L44.343 119.578M132.888 112.248L54.1407 108.907M132.888 112.248L62.7009 150.987M132.888 112.248L92.4893 126.867L52.0911 141.486M52.0911 141.486L61.3441 150.793M52.0911 141.486L34.2456 147.944M26.449 144.443L39.8729 121.832M26.449 144.443C26.0685 145.084 26.3966 145.911 27.1129 146.117M26.449 144.443L26.3578 144.597C26.0235 145.16 26.3118 145.887 26.9413 146.068L27.1129 146.117M39.8729 121.832C40.0578 121.521 40.3799 121.316 40.7404 121.281M39.8729 121.832L39.9086 121.772C40.0711 121.498 40.3541 121.318 40.6709 121.287L40.7404 121.281M44.343 119.578C43.2418 119.669 42.67 118.295 43.5105 117.578M44.343 119.578L43.9168 119.613C42.9491 119.693 42.4465 118.486 43.1851 117.856L43.5105 117.578M43.5105 117.578L53.3538 109.178M53.3538 109.178C53.5724 108.991 53.8535 108.894 54.1407 108.907M53.3538 109.178L53.395 109.143C53.5871 108.979 53.8342 108.894 54.0865 108.904L54.1407 108.907M62.7009 150.987C62.256 151.232 61.7023 151.153 61.3441 150.793M62.7009 150.987L62.6098 151.037C62.2189 151.253 61.7322 151.183 61.4174 150.867L61.3441 150.793M34.2456 147.944C34.02 148.025 33.7744 148.034 33.5438 147.967M34.2456 147.944L34.2035 147.959C34.0053 148.031 33.7894 148.038 33.5868 147.98L33.5438 147.967M33.5438 147.967L27.1129 146.117" stroke="white" stroke-width="2"/>
</g>
<g filter="url(#filter1_d)">
<path fill-rule="evenodd" clip-rule="evenodd" d="M195.044 116.073L243.496 98.5397L201.406 121.771C201.139 121.918 200.807 121.87 200.593 121.654L195.044 116.073Z" fill="url(#paint2_linear)"/>
<path d="M243.496 98.5397L195.044 116.073M243.496 98.5397L188.237 103.956M243.496 98.5397L190.397 102.935M243.496 98.5397L196.273 96.5357M243.496 98.5397L201.406 121.771M195.044 116.073L200.593 121.654M195.044 116.073L184.342 119.946M179.666 117.846L187.717 104.287M179.666 117.846C179.438 118.231 179.635 118.727 180.065 118.851M179.666 117.846V117.846C179.438 118.231 179.635 118.727 180.065 118.851V118.851M187.717 104.287C187.827 104.1 188.021 103.977 188.237 103.956M187.717 104.287V104.287C187.827 104.1 188.021 103.977 188.237 103.956V103.956M190.397 102.935C189.737 102.99 189.394 102.166 189.898 101.736M190.397 102.935V102.935C189.737 102.99 189.394 102.166 189.898 101.736V101.736M189.898 101.736L195.801 96.6984M195.801 96.6984C195.932 96.5865 196.101 96.5284 196.273 96.5357M195.801 96.6984V96.6984C195.932 96.5865 196.101 96.5284 196.273 96.5357V96.5357M201.406 121.771C201.139 121.918 200.807 121.87 200.593 121.654M201.406 121.771V121.771C201.139 121.918 200.807 121.87 200.593 121.654V121.654M184.342 119.946C184.207 119.995 184.059 120 183.921 119.96M184.342 119.946V119.946C184.207 119.995 184.059 120 183.921 119.96V119.96M183.921 119.96L180.065 118.851" stroke="white" stroke-width="2"/>
</g>
<g filter="url(#filter2_d)">
<path fill-rule="evenodd" clip-rule="evenodd" d="M124.237 44.1146L166.884 28.6413L129.716 48.8069C129.48 48.9347 129.19 48.8998 129.006 48.7215L124.237 44.1146Z" fill="url(#paint3_linear)"/>
<path d="M166.884 28.6413L124.237 44.1146M166.884 28.6413L118.467 34.0333M166.884 28.6413L120.372 33.1421M166.884 28.6413L125.609 27.6741M166.884 28.6413L129.716 48.8069M124.237 44.1146L129.006 48.7215M124.237 44.1146L114.817 47.5322M110.76 45.8387L118.007 34.3193M110.76 45.8387C110.554 46.1652 110.719 46.5793 111.093 46.6766M110.76 45.8387V45.8387C110.559 46.1583 110.727 46.5815 111.093 46.6766V46.6766M118.007 34.3193C118.107 34.1606 118.278 34.0544 118.467 34.0333M118.007 34.3193V34.3193C118.107 34.1598 118.275 34.0547 118.462 34.0339L118.467 34.0333M120.372 33.1421C119.794 33.1981 119.506 32.511 119.954 32.1418M120.372 33.1421V33.1421C119.816 33.1959 119.523 32.4974 119.954 32.1418V32.1418M119.954 32.1418L125.194 27.8181M125.194 27.8181C125.31 27.722 125.458 27.6706 125.609 27.6741M125.194 27.8181V27.8181C125.31 27.7219 125.458 27.6706 125.609 27.6741V27.6741M129.716 48.8069C129.48 48.9347 129.19 48.8998 129.006 48.7215M129.716 48.8069L129.699 48.816C129.472 48.9391 129.191 48.9008 129.006 48.7215V48.7215M114.817 47.5322C114.698 47.5754 114.569 47.5818 114.449 47.5505M114.817 47.5322L114.814 47.5334C114.697 47.5759 114.57 47.5819 114.449 47.5505V47.5505M114.449 47.5505L111.093 46.6766" stroke="white" stroke-width="2"/>
</g>
<defs>
<filter id="filter0_d" x="0.330566" y="80.829" width="156.355" height="150.873" filterUnits="userSpaceOnUse" color-interpolation-filters="sRGB">
<feFlood flood-opacity="0" result="BackgroundImageFix"/>
<feColorMatrix in="SourceAlpha" type="matrix" values="0 0 0 0 0 0 0 0 0 0 0 0 0 0 0 0 0 0 127 0"/>
<feOffset dy="52"/>
<feGaussianBlur stdDeviation="8"/>
<feColorMatrix type="matrix" values="0 0 0 0 0 0 0 0 0 0 0 0 0 0 0 0 0 0 0.25 0"/>
<feBlend mode="normal" in2="BackgroundImageFix" result="effect1_dropShadow"/>
<feBlend mode="normal" in="SourceGraphic" in2="effect1_dropShadow" result="shape"/>
</filter>
<filter id="filter1_d" x="153.133" y="78.8069" width="116.553" height="120.079" filterUnits="userSpaceOnUse" color-interpolation-filters="sRGB">
<feFlood flood-opacity="0" result="BackgroundImageFix"/>
<feColorMatrix in="SourceAlpha" type="matrix" values="0 0 0 0 0 0 0 0 0 0 0 0 0 0 0 0 0 0 127 0"/>
<feOffset dy="49"/>
<feGaussianBlur stdDeviation="10"/>
<feColorMatrix type="matrix" values="0 0 0 0 0 0 0 0 0 0 0 0 0 0 0 0 0 0 0.45 0"/>
<feBlend mode="normal" in2="BackgroundImageFix" result="effect1_dropShadow"/>
<feBlend mode="normal" in="SourceGraphic" in2="effect1_dropShadow" result="shape"/>
</filter>
<filter id="filter2_d" x="85.0819" y="11.7339" width="107.767" height="107.374" filterUnits="userSpaceOnUse" color-interpolation-filters="sRGB">
<feFlood flood-opacity="0" result="BackgroundImageFix"/>
<feColorMatrix in="SourceAlpha" type="matrix" values="0 0 0 0 0 0 0 0 0 0 0 0 0 0 0 0 0 0 127 0"/>
<feOffset dy="43"/>
<feGaussianBlur stdDeviation="10"/>
<feColorMatrix type="matrix" values="0 0 0 0 0 0 0 0 0 0 0 0 0 0 0 0 0 0 0.45 0"/>
<feBlend mode="normal" in2="BackgroundImageFix" result="effect1_dropShadow"/>
<feBlend mode="normal" in="SourceGraphic" in2="effect1_dropShadow" result="shape"/>
</filter>
<linearGradient id="paint0_linear" x1="138.661" y1="-0.000233084" x2="138.661" y2="231" gradientUnits="userSpaceOnUse">
<stop offset="0.0365" stop-color="#BD385B"/>
<stop offset="0.3906" stop-color="#9A2762"/>
<stop offset="0.651" stop-color="#8A1F66"/>
<stop offset="0.9688" stop-color="#72146B"/>
</linearGradient>
<linearGradient id="paint1_linear" x1="69.3819" y1="102.921" x2="84.5506" y2="142.806" gradientUnits="userSpaceOnUse">
<stop offset="0.625" stop-color="white" stop-opacity="0"/>
<stop offset="1" stop-color="white"/>
</linearGradient>
<linearGradient id="paint2_linear" x1="205.413" y1="92.9463" x2="214.509" y2="116.865" gradientUnits="userSpaceOnUse">
<stop offset="0.625" stop-color="white" stop-opacity="0"/>
<stop offset="1" stop-color="white"/>
</linearGradient>
<linearGradient id="paint3_linear" x1="133.658" y1="24.5184" x2="141.251" y2="44.4843" gradientUnits="userSpaceOnUse">
<stop offset="0.625" stop-color="white" stop-opacity="0"/>
<stop offset="1" stop-color="white"/>
</linearGradient>
</defs>
</svg>
