<svg width="269" height="247" fill="none" xmlns="http://www.w3.org/2000/svg"><path d="M.15 155.333h51.952c.363 0 .718-.099 1.029-.285l22.997-13.799c.26-.155.48-.367.645-.62l54.242-82.912a2 2 0 012.909-.478l52.298 41.091a2 2 0 002.882-.437l55.07-79.89a2 2 0 01.5-.503L268.245 1" stroke="#E0898B" stroke-opacity=".5" stroke-width="2"/><rect width="31.821" height="170.243" rx="4" transform="matrix(-1 0 0 1 258.698 50.323)" fill="#72146B" fill-opacity=".71"/><rect width="31.821" height="89.099" rx="4" transform="matrix(-1 0 0 1 203.011 131.467)" fill="#8B1C63" fill-opacity=".5"/><rect width="31.821" height="127.285" rx="4" transform="matrix(-1 0 0 1 147.324 93.281)" fill="#BD385B" fill-opacity=".74"/><rect width="31.821" height="42.959" rx="4" transform="matrix(-1 0 0 1 91.637 177.608)" fill="#EF5147" fill-opacity=".5"/><rect width="249.796" height="11.137" rx="2" transform="matrix(-1 0 0 1 258.698 234.886)" fill="#72146B" fill-opacity=".3"/><circle r="5.569" transform="matrix(-1 0 0 1 243.583 19.297)" fill="#E0898B"/><circle r="5.569" transform="matrix(-1 0 0 1 187.896 98.85)" fill="#E0898B"/><circle r="5.569" transform="matrix(-1 0 0 1 132.209 55.892)" fill="#E0898B"/><circle r="5.569" transform="matrix(-1 0 0 1 76.522 141.809)" fill="#E0898B"/></svg>