<svg width="306" height="185" fill="none" xmlns="http://www.w3.org/2000/svg"><path d="M43.41 0H8.195C4.03 0 .65 3.456.65 7.715v66.863c0 4.259 3.38 7.715 7.546 7.715H43.41c4.166 0 7.546-3.456 7.546-7.715V7.715c0-4.26-3.38-7.715-7.546-7.715zM25.803 77.15c-2.783 0-5.031-2.3-5.031-5.144 0-2.845 2.248-5.143 5.03-5.143 2.783 0 5.031 2.298 5.031 5.143 0 2.845-2.248 5.143-5.03 5.143zM43.41 59.79c0 1.061-.85 1.93-1.887 1.93H10.082c-1.038 0-1.887-.869-1.887-1.93V9.645c0-1.061.85-1.93 1.887-1.93h31.441c1.038 0 1.887.869 1.887 1.93V59.79z" fill="#8B1C63"/><path d="M207.698 160.257h-60.903c-.186 4.967-3.695 8.023-8.224 8.023h-15.272c-4.695 0-8.295-4.38-8.232-8.023H54.975c-2.21 0-4.02 1.805-4.02 4.012v4.011c0 8.825 7.235 16.046 16.077 16.046h128.609c8.842 0 16.076-7.221 16.076-16.046v-4.011c0-2.207-1.808-4.012-4.019-4.012zm-12.057-92.264c0-6.619-5.425-12.034-12.057-12.034H79.089c-6.631 0-12.057 5.415-12.057 12.034v84.241h128.609V67.993zm-16.076 68.195H83.108V72.005h96.457v64.183z" fill="#72146B"/><path d="M295.596.005L221.783.04c-5.557.003-10.064 4.528-10.061 10.103l.042 87.516c.003 5.575 4.513 10.096 10.07 10.093l73.814-.035c5.557-.003 10.063-4.528 10.061-10.103l-.042-87.516C305.664 4.523 301.153.002 295.596.005zm-36.858 100.997c-3.712.002-6.712-3.005-6.714-6.728-.001-3.724 2.996-6.734 6.707-6.736 3.712-.001 6.712 3.005 6.714 6.73.002 3.723-2.996 6.732-6.707 6.734zm36.896-22.738a2.528 2.528 0 01-2.515 2.526l-68.781.033a2.528 2.528 0 01-2.518-2.524l-.031-65.637a2.528 2.528 0 012.515-2.525l68.781-.033a2.527 2.527 0 012.517 2.523l.032 65.637z" fill="#BD385B"/><path d="M276.796 39.036c.322-.257.8-.017.8.389V56.36a3.97 3.97 0 01-3.962 3.975h-34.337a3.97 3.97 0 01-3.962-3.975V39.433c0-.414.471-.646.801-.389 1.849 1.441 4.3 3.271 12.719 9.408 1.742 1.275 4.681 3.958 7.611 3.942 2.947.024 5.943-2.717 7.618-3.942 8.42-6.137 10.863-7.975 12.712-9.416zm-20.33 10.7c1.915.032 4.672-2.419 6.058-3.43 10.954-7.974 11.787-8.67 14.313-10.657.479-.373.759-.953.759-1.565V32.51a3.97 3.97 0 00-3.962-3.975h-34.337a3.97 3.97 0 00-3.962 3.975v1.574c0 .612.281 1.184.76 1.565 2.525 1.979 3.359 2.683 14.312 10.658 1.387 1.01 4.144 3.461 6.059 3.428z" fill="#72146B"/><ellipse cx="276.346" cy="29.006" rx="3.828" ry="3.772" fill="red"/><path d="M35.27 32.76c.15-.12.373-.008.373.181v7.891a1.85 1.85 0 01-1.845 1.852H17.805a1.85 1.85 0 01-1.845-1.852v-7.887a.23.23 0 01.373-.181c.861.671 2.003 1.524 5.924 4.383.811.594 2.18 1.845 3.545 1.837 1.372.011 2.768-1.266 3.548-1.837 3.922-2.859 5.06-3.716 5.92-4.387zm-9.468 4.985c.892.016 2.176-1.127 2.822-1.597 5.101-3.716 5.49-4.04 6.666-4.966a.924.924 0 00.354-.73v-.733a1.85 1.85 0 00-1.846-1.852H17.805a1.85 1.85 0 00-1.845 1.852v.734c0 .285.13.551.354.729 1.176.922 1.565 1.25 6.666 4.966.646.47 1.93 1.613 2.822 1.597z" fill="#BD385B"/><ellipse cx="35.098" cy="27.941" rx="1.64" ry="1.611" fill="red"/><path d="M151.75 101.275c.367-.292.912-.019.912.443v19.283c0 2.498-2.021 4.526-4.511 4.526h-39.097c-2.49 0-4.511-2.028-4.511-4.526v-19.273c0-.472.536-.736.912-.443 2.105 1.64 4.896 3.724 14.482 10.711 1.983 1.452 5.329 4.507 8.666 4.488 3.355.028 6.766-3.092 8.674-4.488 9.586-6.987 12.368-9.08 14.473-10.721zm-23.147 12.183c2.18.037 5.319-2.754 6.898-3.904 12.471-9.08 13.421-9.872 16.296-12.135a2.257 2.257 0 00.865-1.782v-1.792c0-2.498-2.021-4.526-4.511-4.526h-39.097c-2.49 0-4.511 2.028-4.511 4.526v1.792c0 .697.32 1.348.865 1.782 2.875 2.253 3.825 3.055 16.296 12.135 1.579 1.15 4.718 3.941 6.899 3.904z" fill="#8B1C63"/><ellipse cx="151.568" cy="88.873" rx="4.374" ry="4.386" fill="red"/></svg>