<svg width="281" height="173" fill="none" xmlns="http://www.w3.org/2000/svg"><path d="M39.95 19H7.05C3.158 19 0 22.15 0 26.031V86.97C0 90.85 3.158 94 7.05 94h32.9c3.892 0 7.05-3.15 7.05-7.031V26.03C47 22.15 43.842 19 39.95 19zM23.5 89.313a4.689 4.689 0 110-9.376 4.689 4.689 0 110 9.376zm16.45-15.82c0 .966-.793 1.757-1.763 1.757H8.814c-.97 0-1.763-.791-1.763-1.758V27.79c0-.967.793-1.758 1.763-1.758h29.374c.97 0 1.763.791 1.763 1.758v45.703zM191.3 151.063h-56.069c-.171 4.526-3.402 7.312-7.571 7.312H113.6c-4.322 0-7.636-3.992-7.578-7.312H50.7c-2.035 0-3.7 1.645-3.7 3.656v3.656C47 166.419 53.66 173 61.8 173h118.4c8.14 0 14.8-6.581 14.8-14.625v-3.656c0-2.011-1.665-3.656-3.7-3.656zm-11.1-84.094c0-6.033-4.995-10.969-11.1-10.969H72.9c-6.105 0-11.1 4.936-11.1 10.969v76.781h118.4V66.969zm-14.8 62.156H76.6v-58.5h88.8v58.5zM271.7.004l-67.496.033c-5.081.002-9.202 4.127-9.2 9.208l.039 79.768c.002 5.081 4.127 9.202 9.208 9.2l67.496-.033c5.081-.002 9.202-4.127 9.199-9.208l-.038-79.768c-.002-5.081-4.127-9.202-9.208-9.2zM237.996 92.06a6.13 6.13 0 01-6.139-6.133 6.129 6.129 0 016.133-6.139 6.13 6.13 0 016.139 6.133 6.129 6.129 0 01-6.133 6.14zm33.738-20.725a2.309 2.309 0 01-2.3 2.302l-62.894.03a2.308 2.308 0 01-2.302-2.3l-.029-59.825a2.309 2.309 0 012.3-2.302l62.894-.03a2.307 2.307 0 012.302 2.3l.029 59.825z" fill="#fff"/><path d="M255.033 36.644a.455.455 0 01.733.355v15.435c0 2-1.623 3.623-3.623 3.623h-31.398c-2 0-3.623-1.623-3.623-3.623V37.007c0-.378.43-.59.732-.355 1.691 1.313 3.932 2.981 11.631 8.574 1.592 1.162 4.279 3.608 6.959 3.592 2.694.023 5.434-2.475 6.966-3.592 7.699-5.593 9.933-7.268 11.623-8.582zm-18.589 9.752c1.751.03 4.272-2.204 5.54-3.125 10.015-7.268 10.778-7.902 13.087-9.714.438-.34.695-.868.695-1.426v-1.434c0-2-1.623-3.623-3.623-3.623h-31.398c-2 0-3.623 1.623-3.623 3.623v1.434c0 .558.257 1.08.694 1.426 2.31 1.804 3.072 2.446 13.088 9.714 1.268.92 3.789 3.155 5.54 3.125z" fill="#fff"/><circle cx="253.622" cy="26.5" r="4" fill="red" stroke="#fff"/><path d="M31.657 50.889a.212.212 0 01.341.165v7.189c0 .932-.756 1.687-1.687 1.687H15.687A1.688 1.688 0 0114 58.243v-7.185c0-.176.2-.274.341-.165.787.611 1.832 1.388 5.417 3.993.742.541 1.993 1.68 3.241 1.673 1.255.01 2.531-1.153 3.245-1.673 3.585-2.605 4.626-3.385 5.413-3.997zM23 55.431c.816.014 1.99-1.027 2.58-1.456 4.665-3.385 5.02-3.68 6.096-4.524a.841.841 0 00.323-.664v-.668c0-.932-.756-1.687-1.687-1.687H15.687c-.931 0-1.687.755-1.687 1.687v.668c0 .26.12.503.323.664 1.076.84 1.431 1.14 6.096 4.524.59.43 1.765 1.47 2.58 1.456z" fill="#fff"/><circle cx="31.5" cy="46.5" r="2" fill="red" stroke="#fff"/><path d="M140.166 94.397a.518.518 0 01.834.404v17.574a4.127 4.127 0 01-4.125 4.125h-35.75A4.126 4.126 0 0197 112.375V94.809c0-.43.49-.67.834-.403 1.925 1.495 4.477 3.394 13.243 9.762 1.813 1.323 4.872 4.108 7.923 4.091 3.068.025 6.187-2.819 7.932-4.091 8.766-6.368 11.309-8.276 13.234-9.771zM119 105.5c1.994.034 4.864-2.509 6.308-3.558 11.404-8.276 12.272-8.997 14.901-11.06.499-.387.791-.988.791-1.624v-1.633a4.126 4.126 0 00-4.125-4.125h-35.75A4.126 4.126 0 0097 87.625v1.633c0 .636.292 1.229.79 1.624 2.63 2.054 3.498 2.784 14.902 11.06 1.444 1.049 4.314 3.592 6.308 3.558z" fill="#fff"/><circle cx="141" cy="83" r="4.5" fill="red" stroke="#fff"/></svg>