<svg width="162" height="86" fill="none" xmlns="http://www.w3.org/2000/svg"><path fill-rule="evenodd" clip-rule="evenodd" d="M42.398 61.54l113.003-18.5L53.968 76.585a1.516 1.516 0 01-1.73-.587l-9.84-14.459z" fill="url(#paint0_linear)"/><path d="M155.401 43.04L42.398 61.54m113.003-18.5L32.481 32.29m122.92 10.75L37.617 30.942M155.401 43.04L53.067 19.365M155.4 43.04L53.968 76.585m-11.57-15.046l9.84 14.459m-9.84-14.459L17.44 65.625M8.084 59.13l23.126-26.33M8.084 59.13a1.517 1.517 0 00.46 2.356m-.46-2.356l-.441.502a1 1 0 00.303 1.554l.598.3M31.21 32.8c.318-.363.79-.552 1.271-.51m-1.271.51l.172-.197a1 1 0 01.839-.336l.26.023m5.136-1.348c-1.464-.15-1.877-2.09-.6-2.823m.6 2.823l-1.593-.164c-.966-.099-1.238-1.378-.396-1.862l1.389-.797m0 0l14.952-8.592m0 0c.333-.19.725-.249 1.098-.162m-1.098.162l.176-.1a1 1 0 01.724-.108l.198.046m.901 57.22a1.516 1.516 0 01-1.73-.587m1.73.587l-.37.122a1 1 0 01-1.14-.387l-.22-.322M17.44 65.625c-.315.052-.639.002-.925-.14m.925.14l-.165.027a1 1 0 01-.61-.093l-.15-.075m0 0l-7.97-3.999" stroke="#fff" stroke-width="2"/><defs><linearGradient id="paint0_linear" x1="74.498" y1="15.259" x2="84.594" y2="71.223" gradientUnits="userSpaceOnUse"><stop offset=".625" stop-color="#fff" stop-opacity="0"/><stop offset="1" stop-color="#fff"/></linearGradient></defs></svg>