<svg width="304" height="93" fill="none" xmlns="http://www.w3.org/2000/svg"><path fill-rule="evenodd" clip-rule="evenodd" d="M184.398 68.444l113.003-18.5L195.968 83.49a1.517 1.517 0 01-1.73-.587l-9.84-14.459z" fill="url(#paint0_linear)"/><path d="M297.401 49.945l-113.003 18.5m113.003-18.5l-122.92-10.75m122.92 10.75L179.618 37.847m117.783 12.098L195.067 26.27m102.334 23.675L195.968 83.49m-11.57-15.046l9.84 14.46m-9.84-14.46l-24.959 4.086m-9.355-6.496l23.126-26.329m-23.126 26.33a1.517 1.517 0 00.46 2.355m-.46-2.356l-.441.503a1 1 0 00.303 1.553l.598.3m22.666-28.685c.318-.362.79-.552 1.271-.51m-1.271.51l.172-.196a1 1 0 01.839-.337l.26.023m5.137-1.348c-1.465-.15-1.878-2.09-.601-2.823m.601 2.823l-1.594-.163c-.966-.1-1.238-1.379-.396-1.862l1.389-.798m0 0l14.953-8.591m0 0c.332-.191.724-.25 1.097-.163m-1.097.163l.175-.102c.219-.125.478-.164.724-.107l.198.046m.901 57.22a1.517 1.517 0 01-1.73-.587m1.73.587l-.37.122a1 1 0 01-1.141-.387l-.219-.322M159.439 72.53a1.517 1.517 0 01-.925-.14m.925.14l-.165.028a1 1 0 01-.61-.094l-.15-.075m0 0l-7.97-3.999M1 68.02c2.898-4.236 11.012-13.005 20.285-14.197M35.718 51.906c6.955.289 21.756.63 25.316-.316M69.918 46.592c3.06-1.992 9.089-6.856 8.723-10.383M81.027 25.623c-.105-3.844-2.016-12.11-8.814-14.424M65.391 8.007c-3.462-.331-11.395.354-15.43 5.75M45.06 20.326c-1.824 3.814-1.93 13.104 3.363 18.725M68.993 59.322c5.324 2.456 20.602 2.262 28.646-2.341M105.876 49.097c2.796-3.546 10.592-10.156 19.405-8.225M136.587 41.96c8.705 1.646 15.346 2.284 26.02-1.081" stroke="#fff" stroke-width="2"/><defs><linearGradient id="paint0_linear" x1="216.498" y1="22.165" x2="226.594" y2="78.128" gradientUnits="userSpaceOnUse"><stop offset=".625" stop-color="#fff" stop-opacity="0"/><stop offset="1" stop-color="#fff"/></linearGradient></defs></svg>