<svg width="170" height="156" fill="none" xmlns="http://www.w3.org/2000/svg"><rect width="20" height="107" rx="4" transform="matrix(-1 0 0 1 162.5 33)" fill="#fff"/><rect width="20" height="56" rx="4" transform="matrix(-1 0 0 1 127.5 84)" fill="#fff" fill-opacity=".9"/><rect width="20" height="80" rx="4" transform="matrix(-1 0 0 1 92.5 60)" fill="#fff"/><rect width="20" height="27" rx="4" transform="matrix(-1 0 0 1 57.5 113)" fill="#fff" fill-opacity=".87"/><rect width="157" height="7" rx="2" transform="matrix(-1 0 0 1 162.5 149)" fill="#fff" fill-opacity=".5"/><circle r="3.5" transform="matrix(-1 0 0 1 153 13.5)" fill="#fff"/><circle r="3.5" transform="matrix(-1 0 0 1 118 63.5)" fill="#fff"/><circle r="3.5" transform="matrix(-1 0 0 1 83 36.5)" fill="#fff"/><circle r="3.5" transform="matrix(-1 0 0 1 48 90.5)" fill="#fff"/><path d="M0 99h32.446a2 2 0 001.029-.285l14.131-8.479a2 2 0 00.645-.62l33.555-51.29a2 2 0 012.91-.478l31.61 24.837a2 2 0 002.882-.438l34.087-49.45c.136-.197.305-.367.5-.504L168.5 2" stroke="#fff" stroke-opacity=".5" stroke-width="3"/></svg>