<svg width="127" height="127" fill="none" xmlns="http://www.w3.org/2000/svg"><path d="M104.218 82.949c-10.742 22.488-37.679 32.01-60.167 21.269-22.488-10.742-32.01-37.679-21.269-60.167s37.679-32.01 60.167-21.269 32.01 37.679 21.269 60.167z" stroke="#fff" stroke-width="5"/><path d="M50.166 81.14l44.985-16.104a2.938 2.938 0 001.776-3.756l-1.98-5.532a2.938 2.938 0 00-3.757-1.776L54.503 67.106l-6.132-17.129a2.938 2.938 0 00-3.756-1.775l-5.532 1.98a2.938 2.938 0 00-1.776 3.756l9.103 25.426a2.938 2.938 0 003.756 1.776z" fill="#fff"/><path d="M50.166 81.14l44.985-16.104a2.938 2.938 0 001.776-3.756l-1.98-5.532a2.938 2.938 0 00-3.757-1.776L54.503 67.106l-6.132-17.129a2.938 2.938 0 00-3.756-1.775l-5.532 1.98a2.938 2.938 0 00-1.776 3.756l9.103 25.426a2.938 2.938 0 003.756 1.776z" fill="#fff"/></svg>