<svg width="165" height="87" viewBox="0 0 165 87" fill="none" xmlns="http://www.w3.org/2000/svg">
<path d="M38.1307 31.3477L157.564 43.6149L53.7965 19.6083C53.4181 19.5208 53.0206 19.5797 52.6838 19.7731L37.5218 28.4848C36.2272 29.2286 36.6454 31.1951 38.1307 31.3477Z" fill="black"/>
<path d="M42.9784 62.3738L157.564 43.6149L32.9223 32.7145C32.4347 32.6719 31.956 32.8639 31.633 33.2316L8.18362 59.9297C7.51897 60.6865 7.74916 61.8672 8.6494 62.3189L16.7318 66.3739C17.0216 66.5193 17.3499 66.5694 17.6698 66.517L42.9784 62.3738Z" fill="black"/>
<path d="M157.564 43.6149L42.9784 62.3738L52.9564 77.0351C53.3427 77.6028 54.0585 77.8455 54.7104 77.6299L157.564 43.6149Z" fill="black"/>
<path d="M157.564 43.6149L42.9784 62.3738M157.564 43.6149L32.9223 32.7145M157.564 43.6149L38.1307 31.3477M157.564 43.6149L53.7965 19.6083M157.564 43.6149L54.7104 77.6299M42.9784 62.3738L52.9564 77.0351M42.9784 62.3738L17.6698 66.517M8.18362 59.9297L31.633 33.2316M8.18362 59.9297C7.51897 60.6865 7.74916 61.8672 8.6494 62.3189M8.18362 59.9297L7.72411 60.4529C7.29187 60.945 7.44157 61.7129 8.02701 62.0066L8.6494 62.3189M31.633 33.2316C31.956 32.8639 32.4347 32.6719 32.9223 32.7145M31.633 33.2316L31.8126 33.0271C32.0227 32.788 32.334 32.6631 32.6511 32.6908L32.9223 32.7145M38.1307 31.3477C36.6454 31.1951 36.2272 29.2286 37.5218 28.4848M38.1307 31.3477L36.4719 31.1773C35.506 31.0781 35.234 29.7992 36.0759 29.3155L37.5218 28.4848M37.5218 28.4848L52.6838 19.7731M52.6838 19.7731C53.0206 19.5797 53.4181 19.5208 53.7965 19.6083M52.6838 19.7731L52.867 19.6679C53.086 19.542 53.3445 19.5038 53.5906 19.5607L53.7965 19.6083M54.7104 77.6299C54.0585 77.8455 53.3427 77.6028 52.9564 77.0351M54.7104 77.6299L54.3253 77.7573C53.9013 77.8975 53.4358 77.7396 53.1846 77.3705L52.9564 77.0351M17.6698 66.517C17.3499 66.5694 17.0216 66.5193 16.7318 66.3739M17.6698 66.517L17.4977 66.5452C17.2897 66.5793 17.0762 66.5467 16.8877 66.4521L16.7318 66.3739M16.7318 66.3739L8.6494 62.3189" stroke="black" stroke-width="2"/>
</svg>
