<svg width="1440" height="209" viewBox="0 0 1440 209" fill="none" xmlns="http://www.w3.org/2000/svg">
<path d="M1441 64.2883C1405.24 46.7735 1366.38 27.7411 1366.31 27.7047C1310.46 0.345406 1238.28 -6.2061 1171.11 5.64852C1096.95 18.7343 1056.01 55.9441 990.804 77.5775C943.415 93.2996 883.762 90.3962 834.573 79.0575L742.24 57.7904C689.049 47.7578 635.796 48.9131 582.518 54.6786C493.213 64.3429 442.874 103.706 349.333 74.9087L261.721 47.9359C190.876 26.8155 140.974 35.6756 95.2597 50.5297C63.134 60.967 32.8013 71.4852 0 79.0444V209H1441V64.2883H1441Z" fill="url(#paint0_linear)"/>
<defs>
<linearGradient id="paint0_linear" x1="720.5" y1="0.000127257" x2="720.5" y2="209" gradientUnits="userSpaceOnUse">
<stop offset="0.0365" stop-color="#BD385B"/>
<stop offset="0.3906" stop-color="#9A2762"/>
<stop offset="0.651" stop-color="#8A1F66"/>
<stop offset="0.9688" stop-color="#72146B"/>
</linearGradient>
</defs>
</svg>
