<svg width="159" height="138" fill="none" xmlns="http://www.w3.org/2000/svg"><path d="M75.455 114.148a6.14 6.14 0 001.824 3.018l4.356 3.945a6.077 6.077 0 002.613 1.396 6.027 6.027 0 002.954-.011l11.325-2.908a6.02 6.02 0 002.594-1.414 6.074 6.074 0 001.617-2.482l1.917-5.555a6.15 6.15 0 00.144-3.524l-1.814-7.093-29.36 7.539 1.83 7.089zM44.61 67.208a33.557 33.557 0 0013.492 19.355c3.927 2.706 10.538 8.77 13.923 14.448l.058.139 29.407-7.55-.017-.15c.231-6.607 3.103-15.106 5.24-19.37a33.553 33.553 0 002.497-23.46c-4.624-18.008-22.885-28.872-40.757-24.224-18.706 4.865-28.26 23.61-23.843 40.811zM73.112 44.12C65.017 46.2 60.134 54.527 62.229 62.683c.42 1.635-.555 3.296-2.177 3.713-1.623.416-3.276-.57-3.696-2.205-2.933-11.42 3.902-23.077 15.237-25.987 1.622-.416 3.276.57 3.696 2.204.42 1.635-.555 3.296-2.177 3.713z" fill="#fff"/><path d="M16.865 82.16a3.994 3.994 0 01-4.601-3.217l-1.312-7.086a3.994 3.994 0 013.178-4.654c6.092-1.162 17.59-3.343 21.677-4.044.185 3.034 1.059 8.745 4.445 15l-23.387 4z" fill="url(#paint0_linear)"/><path d="M40.778 111.692a3.986 3.986 0 01-5.677.243l-5.168-4.798a3.998 3.998 0 01-.194-5.67 6980.446 6980.446 0 0115.3-16.227c3.228 3.326 6.314 6.096 11.314 8.882-2.574 3.124-11.142 12.657-15.575 17.57z" fill="url(#paint1_linear)"/><path d="M40.778 111.692a3.986 3.986 0 01-5.677.243l-5.168-4.798a3.998 3.998 0 01-.194-5.67 6980.446 6980.446 0 0115.3-16.227c3.228 3.326 6.314 6.096 11.314 8.882-2.574 3.124-11.142 12.657-15.575 17.57z" fill="url(#paint2_linear)"/><path d="M15.115 45.73a3.998 3.998 0 01-2.37-5.173l2.498-6.613a3.995 3.995 0 015.156-2.326c5.88 2.233 17.024 6.474 21.005 8.038-2.812 5.016-3.77 7.763-5.196 13.8-4.867-1.816-15.414-5.66-21.093-7.725z" fill="url(#paint3_linear)"/><path d="M140.727 50.354a3.993 3.993 0 002.482-5.035l-2.265-6.842a3.994 3.994 0 00-5.027-2.546c-5.898 1.917-17.024 5.544-20.943 6.9 1.299 2.747 3.286 8.173 3.331 15.285l22.422-7.762z" fill="url(#paint4_linear)"/><path d="M134.001 87.754a3.985 3.985 0 005.091-2.522l2.218-6.695a3.997 3.997 0 00-2.562-5.061 7031.603 7031.603 0 00-21.225-6.849c-1.227 4.47-2.596 8.384-5.636 13.234 3.761 1.498 15.863 5.724 22.114 7.893z" fill="url(#paint5_linear)"/><path d="M134.001 87.754a3.985 3.985 0 005.091-2.522l2.218-6.695a3.997 3.997 0 00-2.562-5.061 7031.603 7031.603 0 00-21.225-6.849c-1.227 4.47-2.596 8.384-5.636 13.234 3.761 1.498 15.863 5.724 22.114 7.893z" fill="url(#paint6_linear)"/><path d="M124.709 17.59a3.997 3.997 0 00-.415-5.677l-5.376-4.591a3.995 3.995 0 00-5.639.446c-4.076 4.79-11.799 13.875-14.533 17.164 4.88 3.04 7.043 4.986 11.202 9.59 3.39-3.937 10.78-12.387 14.761-16.933z" fill="url(#paint7_linear)"/><defs><linearGradient id="paint0_linear" x1="11.632" y1="75.531" x2="38.835" y2="70.498" gradientUnits="userSpaceOnUse"><stop offset=".234" stop-color="#fff"/><stop offset="1" stop-color="#fff" stop-opacity="0"/></linearGradient><linearGradient id="paint1_linear" x1="32.525" y1="109.544" x2="51.244" y2="89.379" gradientUnits="userSpaceOnUse"><stop offset=".177" stop-color="#fff"/><stop offset="1" stop-color="#fff" stop-opacity="0"/></linearGradient><linearGradient id="paint2_linear" x1="32.525" y1="109.544" x2="51.244" y2="89.379" gradientUnits="userSpaceOnUse"><stop offset=".177" stop-color="#fff"/><stop offset="1" stop-color="#fff" stop-opacity="0"/></linearGradient><linearGradient id="paint3_linear" x1="13.985" y1="37.273" x2="38.782" y2="46.643" gradientUnits="userSpaceOnUse"><stop offset=".172" stop-color="#fff"/><stop offset="1" stop-color="#fff" stop-opacity="0"/></linearGradient><linearGradient id="paint4_linear" x1="142.119" y1="42.025" x2="115.856" y2="50.72" gradientUnits="userSpaceOnUse"><stop offset=".26" stop-color="#fff"/><stop offset="1" stop-color="#fff" stop-opacity="0"/></linearGradient><linearGradient id="paint5_linear" x1="140.198" y1="81.895" x2="114.079" y2="73.243" gradientUnits="userSpaceOnUse"><stop offset=".26" stop-color="#fff"/><stop offset="1" stop-color="#fff" stop-opacity="0"/></linearGradient><linearGradient id="paint6_linear" x1="140.198" y1="81.895" x2="114.079" y2="73.243" gradientUnits="userSpaceOnUse"><stop offset=".26" stop-color="#fff"/><stop offset="1" stop-color="#fff" stop-opacity="0"/></linearGradient><linearGradient id="paint7_linear" x1="121.625" y1="9.633" x2="104.409" y2="29.791" gradientUnits="userSpaceOnUse"><stop offset=".182" stop-color="#fff"/><stop offset="1" stop-color="#fff" stop-opacity="0"/></linearGradient></defs></svg>