<svg width="161" height="139" fill="none" xmlns="http://www.w3.org/2000/svg"><path d="M80.451 115.739v-.001a3.643 3.643 0 01-1.08-1.79h-.001l-1.204-4.664 24.511-6.294 1.194 4.668s0 0 0 0a3.64 3.64 0 01-.085 2.088v.001l-1.917 5.555v.001a3.569 3.569 0 01-.952 1.461 3.52 3.52 0 01-1.517.828L88.074 120.5a3.523 3.523 0 01-1.728.006 3.577 3.577 0 01-1.538-.822v-.001l-4.357-3.944zm-19.436-30.81h0a31.056 31.056 0 01-12.49-17.918C44.427 51.045 53.3 33.734 70.577 29.24h0c16.516-4.295 33.423 5.74 37.707 22.425a31.055 31.055 0 01-2.311 21.72h0c-2.063 4.117-4.779 11.943-5.393 18.675l-25.84 6.635c-3.782-5.604-9.932-11.153-13.724-13.767z" stroke="#fff" stroke-width="5"/><path d="M75.395 44.355c-8.613 2.211-13.946 10.534-11.888 18.55.413 1.607-.651 3.268-2.377 3.71-1.727.444-3.459-.498-3.872-2.105-2.882-11.225 4.584-22.875 16.644-25.971 1.726-.444 3.459.499 3.871 2.105.413 1.607-.651 3.267-2.378 3.71z" fill="#fff"/><path d="M115.823 71.563a7062.86 7062.86 0 0121.225 6.848 3.997 3.997 0 012.562 5.062l-2.218 6.695a3.986 3.986 0 01-5.091 2.521c-6.251-2.169-18.353-6.394-22.114-7.892 3.04-4.85 4.409-8.764 5.636-13.234zM46.594 85.519c-2.837 3.194-10.847 12.438-15.023 17.265a3.992 3.992 0 00.407 5.63l4.982 4.325a3.985 3.985 0 005.664-.43c4.269-5.055 12.522-14.865 14.997-18.069-4.954-2.5-7.803-5.603-11.027-8.721zM37.425 63.41c-4.47.669-16.991 2.605-23.454 3.606a3.993 3.993 0 00-3.328 4.59l1.266 7.824a3.986 3.986 0 004.625 3.299c6.803-1.2 20.34-3.611 24.549-4.552-2.354-5.576-3.127-9.893-3.658-14.768z" stroke="#fff" stroke-width="7"/><path d="M42.047 40.186a7017.103 7017.103 0 00-20.588-8.634 3.998 3.998 0 00-5.24 2.172l-2.682 6.537a3.986 3.986 0 002.22 5.23c6.162 2.426 18.11 7.106 21.944 8.42.853-5.666 2.364-9.53 4.346-13.725z" stroke="#FEFEFE" stroke-width="8"/><path d="M115.841 44.207c3.954-1.531 14.978-5.739 20.83-7.97a3.997 3.997 0 015.169 2.337l2.469 6.607a3.986 3.986 0 01-2.386 5.156c-6.23 2.229-18.307 6.523-22.177 7.713-.672-5.684-2.058-9.591-3.905-13.843zM100.68 24.417a6980.65 6980.65 0 0115.237-16.286 3.998 3.998 0 015.671-.163l5.112 4.858a3.986 3.986 0 01.113 5.68c-4.625 4.733-13.602 13.882-16.56 16.647-3.094-4.816-6.051-7.722-9.573-10.736z" stroke="#fff" stroke-width="7"/></svg>