<svg width="86" height="34" fill="none" xmlns="http://www.w3.org/2000/svg"><path fill-rule="evenodd" clip-rule="evenodd" d="M20.468 24.313l61.328-10.04-55.05 18.206a.823.823 0 01-.938-.319l-5.34-7.847z" fill="url(#paint0_linear)"/><path d="M81.796 14.273l-61.328 10.04m61.328-10.04L15.087 8.44m66.71 5.834L17.873 7.708m63.923 6.565L26.258 1.424m55.538 12.85l-55.05 18.205m-6.278-8.166l5.34 7.848m-5.34-7.848L6.922 26.531m-5.077-3.526l12.55-14.289m-12.55 14.29a.823.823 0 00.25 1.278m-.25-1.279v0a.823.823 0 00.25 1.28v0m12.3-15.569c.173-.197.43-.3.69-.277m-.69.277v0c.173-.197.43-.3.69-.277v0m2.788-.731c-.795-.082-1.019-1.135-.326-1.533m.326 1.533v0c-.795-.082-1.019-1.135-.326-1.533v0m0 0l8.115-4.662m0 0a.823.823 0 01.596-.089m-.596.089v0a.823.823 0 01.596-.089v0m.489 31.055a.823.823 0 01-.939-.319m.939.319v0a.823.823 0 01-.939-.319v0M6.922 26.532a.823.823 0 01-.502-.077m.502.077v0a.823.823 0 01-.502-.077v0m0 0l-4.326-2.17" stroke="#fff" stroke-width="2"/><defs><linearGradient id="paint0_linear" x1="37.889" y1="-.804" x2="43.368" y2="29.569" gradientUnits="userSpaceOnUse"><stop offset=".625" stop-color="#fff" stop-opacity="0"/><stop offset="1" stop-color="#fff"/></linearGradient></defs></svg>