<svg version="1.1" id="Capa_1" xmlns="http://www.w3.org/2000/svg" x="0" y="0" viewBox="0 0 48.6 48.6" xml:space="preserve"><style>.st0{fill:#fff}</style><path class="st0" d="M22.5 13.2l-.1.3h-.6v.3h.2v.2h.4l.2-.2.1-.3h.3l.1-.3-.3-.1-.3.1z"/><path class="st0" d="M48.6 24.1c0-.7 0-1.4-.1-2.1-.2-2.3-.8-4.5-1.6-6.6-.1-.2-.1-.3-.2-.5-1.1-2.6-2.7-5-4.6-7l-.4-.4-1.1-1.1c-4.3-4-10-6.4-16.3-6.4C18 0 12.2 2.4 7.9 6.4c-1 .9-1.9 1.9-2.8 3C1.9 13.6 0 18.7 0 24.3c0 13.4 10.9 24.3 24.3 24.3 9.4 0 17.6-5.4 21.6-13.3.9-1.7 1.5-3.5 2-5.4.1-.5.2-1 .3-1.4.2-1.4.4-2.8.4-4.2v-.2zM44 14.3l.1-.2c.2.4.4.7.5 1.1h-.2l-.4.1v-1zm-3.5-4.2V9c.4.4.8.8 1.1 1.3l-.4.7h-1.5l-.1-.3.9-.6zM11.2 7.4h.5v-.2h.8v.3l-.2.3h-1.1v-.4zm.8 1.1l.5-.1v.5l-1.1.1-.2-.2.8-.3zm33.6 9.6h-1.8l-1.1-.8-1.1.1v.7h-.4l-.4-.3-2-.5V16l-2.5.2-.8.4H34l-1.2.7v1.3l-2.5 1.8.2.8h.5v.6l-.4.2v1.9l2.1 2.4h.9l.1-.1h1.7l.5-.4h.9l.5.5 1.4.1-.2 1.9 1.6 2.8-.8 1.6.1.7.6.6v1.8l.9 1.1v1.5h.7c-4.1 5-10.3 8.2-17.3 8.2C12 46.6 2 36.6 2 24.3c0-3.1.6-6 1.8-8.7v-.7l.8-1 .9-1.5v.4l-.9 1.1c-.3.6-.6 1.1-.8 1.7v1.3l.9.4v1.8l.9 1.5.7.1.1-.5-.9-1.3-.2-1.3h.5l.2 1.3 1.2 1.8-.2.6.8 1.2 2 .5v-.3l.8.1-.1.6.6.1.9.3 1.3 1.5 1.7.1.2 1.4-1.2.8v1.2l-.2.8 1.7 2.1.1.7s.6.2.7.2c.1 0 1.4 1 1.4 1v3.8l.5.1-.3 1.8.8 1-.2 1.7 1 1.8 1.3 1.2h1.3l.1-.4-1-.8.1-.4.2-.5v-.5h-.7l-.3-.4.5-.5.1-.4-.6-.2v-.4l.9-.1 1.3-.6.4-.8 1.4-1.8-.3-1.4.4-.7h1.3l.9-.7.3-2.7 1-1.2.2-.8-.9-.3-.6-.9h-2l-1.6-.6-.1-1.1-.5-.9h-1.4l-.8-1.3-.7-.4v.4l-1.3.1-.4-.8-1.4-.3-1.1 1.3-1.8-.3-.1-2-1.3-.2.5-1-.1-.6-1.8 1.2-1.1-.1-.3-.9.2-.9.6-1.1 1.4-.7h2.6v.8l.9.4-.1-1.4.7-.7 1.4-.9.1-.6 1.4-1.4 1.5-.8H20l1-.9.4.1.2.2.4-.4h.1l-.4-.1-.4-.1V12l.2-.2h.5l.2.1.2.4h.3l.7-.1.1-.3.4.1v.4l-.4.2.1.4 1.2.4h.3v-.5l-1-.4-.1-.4.8-.3V11l-.8-.5-.1-1.3-1.2.6h-.4l.1-1-1.6-.4-.7.5v1.5l-1.1.3-.5 1-.5.1v-1.3l-1.1-.2-.6-.3-.2-.8 2-1.2 1-.3.1.7h.5v-.3l.6-.1v-.1l-.2-.1-.1-.4.7-.1.4-.4.1-.1 1.5-.2.6.6-1.6.8 2.2.5.3-.7h.9l.3-.6-.6-.2v-.8l-2.1-.9-1.4.2-.8.4.1 1-.9-.1-.1-.6.8-.7-1.5-.1-.4.1-.3.5.6.1-.1.6-.9.1-.1.4h-1.4s0-.8-.1-.8h1.1l.7-.9-.4-.2-.6.6-1-.1-.6-.8h-1.3l-1.3 1H14l.1.4-.3.3h1.3l.2.5-1.5-.1-.1-.4-.9-.2-.5-.3h-1.1C14.9 3.6 19.4 2 24.3 2 30 2 35.1 4.1 39 7.6l-.2.4-1 .4-.4.5.1.5.5.1.3.8.9-.4.2 1.1h-.3l-.8-.1-.8.1-.8 1.1-1.2.2-.2 1 .5.1-.1.6-1.1-.2-1.1.2-.2.6.2 1.2.6.3h1l.7-.1.2-.6 1.1-1.4.7.1.7-.6.1.5 1.7 1.2-.2.3h-.8l.3.4.5.1.6-.2v-.7l.3-.1-.2-.2-1.2-.6-.3-.9h1l.3.3.8.7v.9l.9.9.3-1.3.6-.3.1 1 .6.6h1.2l.6 1.8-.1.2zM13.3 11l.6-.3.5.1-.2.7-.6.2-.3-.7zm3.1 1.7v.5H15l-.5-.2.1-.3.6-.3h.9v.3h.3zm.6.7v.4l-.4.2-.4.1v-.7h.8zm-.4-.2v-.5l.5.4-.5.1zm.2 1v.4l-.3.4h-.7l.1-.5h.3l.1-.2.5-.1zm-1.8-.8h.7l-.9 1.3-.4-.2.1-.6.5-.5zm3.1.7v.4h-.7l-.2-.3v-.4h.1l.8.3zm-.7-.6l.2-.2.3.2-.3.2-.2-.2zM46 19.3c.1 0 .1.2.2.3l-.2-.3z"/><path class="st0" d="M3.8 14.9v.7c.2-.6.5-1.1.8-1.7l-.8 1z"/></svg>