<svg width="455" height="166" fill="none" xmlns="http://www.w3.org/2000/svg"><path fill-rule="evenodd" clip-rule="evenodd" d="M304.96 144.782l96.049-15.724-86.215 28.512a1.29 1.29 0 01-1.47-.498l-8.364-12.29z" fill="url(#paint0_linear)"/><path d="M401.009 129.058l-96.049 15.724m96.049-15.724l-104.478-9.137m104.478 9.137l-100.112-10.283m100.112 10.283l-86.981-20.123m86.981 20.123l-86.215 28.512m-9.834-12.788l8.364 12.29m-8.364-12.29l-21.214 3.473m-7.952-5.521l19.656-22.379m-19.656 22.379a1.288 1.288 0 00.391 2.002m-.391-2.002l-.246.281a.999.999 0 00.302 1.553l.335.168m19.265-24.381c.271-.309.672-.47 1.081-.434m-1.081.434l.097-.11c.21-.239.521-.364.838-.337l.146.013m4.366-1.146c-1.245-.127-1.596-1.776-.511-2.399m.511 2.399l-.892-.091c-.965-.099-1.238-1.378-.396-1.862l.777-.446m0 0l12.71-7.303m0 0a1.29 1.29 0 01.932-.138m-.932.138l.098-.056a1 1 0 01.724-.107l.11.025m.766 48.635a1.29 1.29 0 01-1.47-.498m1.47.498l-.207.069a1 1 0 01-1.14-.387l-.123-.18m-29.578-8.817a1.287 1.287 0 01-.786-.12m.786.12l-.093.015a.998.998 0 01-.61-.093l-.083-.042m0 0l-6.775-3.399" stroke="#fff" stroke-width="2"/><path fill-rule="evenodd" clip-rule="evenodd" d="M401.457 27.106l47.65-7.8-42.772 14.144a.639.639 0 01-.729-.247l-4.149-6.097z" fill="url(#paint1_linear)"/><path d="M449.107 19.305l-47.65 7.801m47.65-7.8l-51.832-4.534m51.832 4.533l-49.666-5.1m49.666 5.1l-43.152-9.983m43.152 9.983L406.335 33.45m-4.878-6.344l4.149 6.097m-4.149-6.097l-10.525 1.723m-3.945-2.74l9.752-11.101m-9.752 11.102a.64.64 0 00.194.994m-.194-.994v0a.64.64 0 00.194.994v0m9.558-12.096a.639.639 0 01.536-.215m-.536.215v0a.639.639 0 01.536-.215v0m2.166-.569c-.618-.063-.792-.881-.253-1.19m.253 1.19v0c-.618-.063-.792-.881-.253-1.19v0m0 0l6.305-3.623m0 0a.638.638 0 01.462-.069m-.462.069v0a.638.638 0 01.462-.069v0m.38 24.128a.639.639 0 01-.729-.247m.729.247v0a.639.639 0 01-.729-.247v0m-14.674-4.374a.64.64 0 01-.39-.06m.39.06v0a.64.64 0 01-.39-.06v0m0 0l-3.361-1.685" stroke="#fff" stroke-width="2"/><path fill-rule="evenodd" clip-rule="evenodd" d="M178.187 77.607l96.049-15.724-86.215 28.512a1.289 1.289 0 01-1.47-.499l-8.364-12.29z" fill="url(#paint2_linear)"/><path d="M274.236 61.883l-96.049 15.724m96.049-15.724l-104.478-9.137m104.478 9.137L174.124 51.6m100.112 10.283L187.255 41.76m86.981 20.123l-86.215 28.512m-9.834-12.788l8.364 12.29m-8.364-12.29l-21.214 3.473m-7.952-5.522l19.656-22.379m-19.656 22.379a1.289 1.289 0 00.391 2.003m-.391-2.003l-.246.281a1 1 0 00.302 1.554l.335.168m19.265-24.382a1.29 1.29 0 011.081-.433m-1.081.433l.097-.11a1 1 0 01.838-.336l.146.013m4.366-1.146c-1.245-.128-1.596-1.776-.511-2.4m.511 2.4l-.892-.092c-.965-.099-1.237-1.378-.396-1.861l.777-.447m0 0l12.71-7.302m0 0c.282-.162.615-.212.932-.138m-.932.138l.098-.057c.219-.126.478-.164.724-.107l.11.026m.766 48.635a1.289 1.289 0 01-1.47-.499m1.47.499l-.207.068a.999.999 0 01-1.14-.387l-.123-.18m-29.578-8.816a1.289 1.289 0 01-.786-.12m.786.12l-.092.015a.998.998 0 01-.61-.093l-.084-.042m0 0l-6.775-3.4M1 78.02c2.898-4.236 11.012-13.005 20.285-14.197M35.718 61.906c6.955.289 21.756.63 25.316-.316M69.918 56.592c3.06-1.992 9.088-6.856 8.722-10.383M81.027 35.623c-.106-3.844-2.016-12.11-8.814-14.423M65.391 18.007c-3.462-.331-11.395.354-15.43 5.75M45.06 30.326c-1.824 3.815-1.929 13.104 3.364 18.725M68.993 69.322c5.324 2.456 20.602 2.262 28.646-2.341M105.876 59.097c2.796-3.546 10.592-10.156 19.405-8.225M136.587 51.96c8.705 1.646 15.346 2.284 26.02-1.081" stroke="#fff" stroke-width="2"/><defs><linearGradient id="paint0_linear" x1="332.244" y1="105.446" x2="340.826" y2="153.013" gradientUnits="userSpaceOnUse"><stop offset=".625" stop-color="#fff" stop-opacity="0"/><stop offset="1" stop-color="#fff"/></linearGradient><linearGradient id="paint1_linear" x1="414.993" y1="7.591" x2="419.25" y2="31.19" gradientUnits="userSpaceOnUse"><stop offset=".625" stop-color="#fff" stop-opacity="0"/><stop offset="1" stop-color="#fff"/></linearGradient><linearGradient id="paint2_linear" x1="205.471" y1="38.27" x2="214.053" y2="85.837" gradientUnits="userSpaceOnUse"><stop offset=".625" stop-color="#fff" stop-opacity="0"/><stop offset="1" stop-color="#fff"/></linearGradient></defs></svg>