<svg width="295" height="295" fill="none" xmlns="http://www.w3.org/2000/svg"><path d="M147.5 0C66.036 0 0 66.036 0 147.5S66.036 295 147.5 295 295 228.964 295 147.5 228.964 0 147.5 0zm48.943 212.685c-2.32 2.308-4.752 4.729-6.727 6.709a14.226 14.226 0 00-3.67 6.37c-.898 3.367-1.623 6.769-2.837 10.034l-10.343 27.864c-8.183 1.784-16.653 2.79-25.366 2.79v-16.285c1.005-7.506-4.544-21.566-13.459-30.481a19.032 19.032 0 01-5.573-13.46v-19.038c0-6.923-3.729-13.287-9.79-16.635-8.547-4.729-20.703-11.336-29.03-15.529-6.828-3.438-13.144-7.815-18.824-12.936l-.476-.429a68.23 68.23 0 01-10.741-12.335c-5.58-8.19-14.667-21.661-20.573-30.416 12.175-27.061 34.115-48.794 61.379-60.6l14.28 7.143c6.328 3.164 13.775-1.433 13.775-8.51V30.22a118.846 118.846 0 0114.506-1.44l16.832 16.832a9.517 9.517 0 010 13.46l-2.79 2.783-6.15 6.15a4.761 4.761 0 000 6.726l2.79 2.79a4.761 4.761 0 010 6.727l-4.758 4.757a4.764 4.764 0 01-3.367 1.392h-5.347a4.753 4.753 0 00-3.318 1.35l-5.9 5.74a4.759 4.759 0 00-.94 5.537l9.272 18.55c1.582 3.165-.719 6.888-4.252 6.888h-3.355a4.752 4.752 0 01-3.116-1.166l-5.52-4.794a9.526 9.526 0 00-9.248-1.843l-18.539 6.179a7.105 7.105 0 00-4.859 6.745 7.112 7.112 0 003.931 6.358l6.59 3.295a40.286 40.286 0 0018.028 4.258c6.256 0 13.435 16.231 19.032 19.032h39.7c5.049 0 9.885 2.005 13.459 5.573l8.143 8.142a18.144 18.144 0 015.311 12.829 27.68 27.68 0 01-8.16 19.615zm51.571-54.331a14.273 14.273 0 01-8.416-5.929l-10.693-16.041a14.254 14.254 0 010-15.832l11.651-17.474a14.26 14.26 0 015.495-4.848l7.72-3.86c8.041 16.011 12.681 34.02 12.681 53.13 0 5.157-.441 10.206-1.083 15.19l-17.355-4.336z" fill="url(#paint0_linear)"/><defs><linearGradient id="paint0_linear" x1="11.155" y1="148.739" x2="295" y2="148.739" gradientUnits="userSpaceOnUse"><stop offset=".094" stop-color="#fff"/><stop offset=".635" stop-color="#fff" stop-opacity=".745"/><stop offset="1" stop-color="#fff" stop-opacity="0"/></linearGradient></defs></svg>